<?xml version="1.0" encoding="utf-8"?>
<!-- Generator: Adobe Illustrator 27.5.0, SVG Export Plug-In . SVG Version: 6.00 Build 0)  -->
<svg version="1.1" xmlns="http://www.w3.org/2000/svg" xmlns:xlink="http://www.w3.org/1999/xlink" x="0px" y="0px"
	 viewBox="0 0 750 500" style="enable-background:new 0 0 750 500;" xml:space="preserve">
<g id="BACKGROUND">
	<rect style="fill:#BCB0F8;" width="750" height="500.282"/>
</g>
<g id="OBJECTS">
	<g>
		<g>
			<g>
				<g>
					<defs>
						<path id="XMLID_2_" d="M221.383,124.496c-0.382,1.613-0.781,3.211-1.246,4.807c-3.895,13.361-5.124,61.865-59.186,106.416
							c-53.046,43.713-59.471,117.994,55.271,157.181c114.742,39.187,287.045,48.205,398.622-63.153
							c49.92-49.822,82.796-110.041,45.641-162.723c-38.426-54.484-109.899-18.45-159.794-46.129
							c-61.777-34.271-126.85-96.248-215.12-70.112C236.67,65.262,223.313,116.344,221.383,124.496z"/>
					</defs>
					<use xlink:href="#XMLID_2_"  style="overflow:visible;fill:#CEC8FC;"/>
					<clipPath id="XMLID_00000093163914214608298570000008467920354879887004_">
						<use xlink:href="#XMLID_2_"  style="overflow:visible;"/>
					</clipPath>
					<path style="clip-path:url(#XMLID_00000093163914214608298570000008467920354879887004_);fill:#C1BCF9;" d="M41.717,376.884
						c0,0,50.953-60.922,136.213-44.713c85.26,16.209,107.367,76.984,193.377,61.042C487.484,371.68,513.266,240.8,640.111,360.131
						c0,0-184.398,217.623-398.239,161.337C28.031,465.182,41.717,376.884,41.717,376.884z"/>
				</g>
				<path style="fill:#CEC8FC;" d="M150.632,63.87c-3.481-7.677-12.206-12.208-21.791-12.039
					c-12.202,0.215-31.211,5.088-48.292,28.724c-27.951,38.677,3.372,52.476,27.512,49.325
					C128.843,127.166,161.659,88.187,150.632,63.87z"/>
				<path style="fill:#CEC8FC;" d="M662.866,370.672c-1.252-5.143-6.106-8.957-12.04-9.971c-7.554-1.291-19.851-0.503-33.149,12.087
					c-21.76,20.602-4.044,32.772,11.219,33.644C642.035,407.183,666.832,386.963,662.866,370.672z"/>
			</g>
		</g>
		<g>
			<g>
				<path style="fill:none;stroke:#FFFFFF;stroke-width:0.9548;stroke-miterlimit:10;" d="M81.973,252.986H56.404
					c-1.309,0-2.371,1.076-2.371,2.404v14.38c0,1.328,1.061,2.404,2.371,2.404h10.419l8.76,6.296v-5.941l6.437-0.13
					c1.291-0.026,2.323-1.095,2.323-2.404V255.39C84.344,254.062,83.282,252.986,81.973,252.986z"/>
				<path style="fill:none;stroke:#FFFFFF;stroke-width:0.9548;stroke-miterlimit:10;" d="M74.52,384.738
					c0,2.986-2.387,5.407-5.332,5.407c-2.945,0-5.332-2.421-5.332-5.407c0-2.986,2.387-5.407,5.332-5.407
					C72.133,379.331,74.52,381.751,74.52,384.738z"/>
				<path style="fill:none;stroke:#FFFFFF;stroke-width:0.9548;stroke-miterlimit:10;" d="M570.544,429.877
					c0,2.986-2.387,5.407-5.332,5.407c-2.945,0-5.332-2.421-5.332-5.407c0-2.986,2.387-5.407,5.332-5.407
					C568.157,424.47,570.544,426.89,570.544,429.877z"/>
				
					<ellipse style="fill:none;stroke:#FFFFFF;stroke-width:0.9548;stroke-miterlimit:10;" cx="683.183" cy="111.494" rx="7.14" ry="7.24"/>
				
					<rect x="458.129" y="40.848" style="fill:none;stroke:#FFFFFF;stroke-width:0.9548;stroke-miterlimit:10;" width="8.064" height="8.178"/>
			</g>
			<g>
				<path style="fill:#7254BE;" d="M619.916,46.955h-67.743c-1.605,0-2.905-1.301-2.905-2.905l0,0c0-1.604,1.301-2.905,2.905-2.905
					h67.743c1.604,0,2.905,1.301,2.905,2.905l0,0C622.821,45.654,621.52,46.955,619.916,46.955z"/>
				<path style="fill:#7254BE;" d="M82.485,177.533H45.228c-1.604,0-2.905-1.301-2.905-2.905l0,0c0-1.605,1.301-2.905,2.905-2.905
					h37.257c1.605,0,2.905,1.301,2.905,2.905l0,0C85.39,176.232,84.089,177.533,82.485,177.533z"/>
				<path style="fill:#7254BE;" d="M702.836,329.187h-46.257c-1.604,0-2.905-1.301-2.905-2.905l0,0c0-1.605,1.301-2.905,2.905-2.905
					h46.257c1.604,0,2.905,1.301,2.905,2.905l0,0C705.741,327.886,704.44,329.187,702.836,329.187z"/>
				<path style="fill:#7254BE;" d="M421.775,436.782h-37.257c-1.605,0-2.905-1.301-2.905-2.905l0,0c0-1.604,1.301-2.905,2.905-2.905
					h37.257c1.605,0,2.905,1.301,2.905,2.905l0,0C424.681,435.481,423.38,436.782,421.775,436.782z"/>
			</g>
		</g>
	</g>
	<g>
		<g>
			<g>
				<rect x="255.56" y="140.571" style="fill:#FFFFFF;" width="363.753" height="226.283"/>
				<g>
					<path style="fill:#7254BE;" d="M255.56,100.967v39.603h363.753v-39.603c0-7.868-6.378-14.246-14.246-14.246H269.806
						C261.938,86.722,255.56,93.1,255.56,100.967z"/>
					<g>
						<g>
							<g>
								<circle style="fill:#420909;" cx="310.538" cy="115.772" r="8.43"/>
								<path style="fill:#FFFFFF;" d="M310.538,118.938L310.538,118.938c-2.668,0-4.832-2.163-4.832-4.831V81.444
									c0-2.668,2.163-4.832,4.832-4.832l0,0c2.668,0,4.832,2.163,4.832,4.832v32.662
									C315.369,116.774,313.206,118.938,310.538,118.938z"/>
							</g>
						</g>
						<g>
							<g>
								<circle style="fill:#420909;" cx="361.944" cy="115.772" r="8.43"/>
								<path style="fill:#FFFFFF;" d="M361.944,118.938L361.944,118.938c-2.668,0-4.832-2.163-4.832-4.831V81.444
									c0-2.668,2.163-4.832,4.832-4.832l0,0c2.668,0,4.831,2.163,4.831,4.832v32.662
									C366.776,116.774,364.613,118.938,361.944,118.938z"/>
							</g>
						</g>
						<g>
							<g>
								<circle style="fill:#420909;" cx="413.351" cy="115.772" r="8.43"/>
								<path style="fill:#FFFFFF;" d="M413.351,118.938L413.351,118.938c-2.668,0-4.831-2.163-4.831-4.831V81.444
									c0-2.668,2.163-4.832,4.831-4.832l0,0c2.668,0,4.832,2.163,4.832,4.832v32.662
									C418.182,116.774,416.019,118.938,413.351,118.938z"/>
							</g>
						</g>
						<g>
							<g>
								<circle style="fill:#420909;" cx="464.757" cy="115.772" r="8.43"/>
								<path style="fill:#FFFFFF;" d="M464.757,118.938L464.757,118.938c-2.668,0-4.832-2.163-4.832-4.831V81.444
									c0-2.668,2.163-4.832,4.832-4.832l0,0c2.668,0,4.832,2.163,4.832,4.832v32.662
									C469.589,116.774,467.426,118.938,464.757,118.938z"/>
							</g>
						</g>
						<g>
							<g>
								<circle style="fill:#420909;" cx="516.164" cy="115.772" r="8.43"/>
								<path style="fill:#FFFFFF;" d="M516.164,118.938L516.164,118.938c-2.668,0-4.832-2.163-4.832-4.831V81.444
									c0-2.668,2.163-4.832,4.832-4.832l0,0c2.668,0,4.832,2.163,4.832,4.832v32.662
									C520.995,116.774,518.832,118.938,516.164,118.938z"/>
							</g>
						</g>
						<g>
							<g>
								<circle style="fill:#420909;" cx="567.57" cy="115.772" r="8.43"/>
								<path style="fill:#FFFFFF;" d="M567.57,118.938L567.57,118.938c-2.668,0-4.832-2.163-4.832-4.831V81.444
									c0-2.668,2.163-4.832,4.832-4.832l0,0c2.668,0,4.831,2.163,4.831,4.832v32.662
									C572.402,116.774,570.239,118.938,567.57,118.938z"/>
							</g>
						</g>
					</g>
				</g>
			</g>
			<g>
				<g>
					<rect x="357.366" y="169.761" style="fill:#BCB0F8;" width="47.718" height="47.718"/>
					<rect x="420.853" y="169.761" style="fill:#DF617D;" width="47.718" height="47.718"/>
					<rect x="484.34" y="169.761" style="fill:#BCB0F8;" width="47.718" height="47.718"/>
					<rect x="547.826" y="169.761" style="fill:#BCB0F8;" width="47.718" height="47.718"/>
					<rect x="293.88" y="169.761" style="fill:#BCB0F8;" width="47.718" height="47.718"/>
				</g>
				<g>
					<rect x="357.366" y="230.333" style="fill:#BCB0F8;" width="47.718" height="47.718"/>
					<rect x="420.853" y="230.333" style="fill:#BCB0F8;" width="47.718" height="47.718"/>
					<rect x="484.34" y="230.333" style="fill:#DF617D;" width="47.718" height="47.718"/>
					<rect x="547.826" y="230.333" style="fill:#BCB0F8;" width="47.718" height="47.718"/>
					<rect x="293.88" y="230.333" style="fill:#BCB0F8;" width="47.718" height="47.718"/>
				</g>
				<g>
					<rect x="357.366" y="290.905" style="fill:#DF617D;" width="47.718" height="47.718"/>
					<rect x="420.853" y="290.905" style="fill:#BCB0F8;" width="47.718" height="47.718"/>
					<rect x="484.34" y="290.905" style="fill:#BCB0F8;" width="47.718" height="47.718"/>
					<rect x="547.826" y="290.905" style="fill:#BCB0F8;" width="47.718" height="47.718"/>
					<rect x="293.88" y="290.905" style="fill:#BCB0F8;" width="47.718" height="47.718"/>
				</g>
			</g>
		</g>
		<g>
			<g>
				<g>
					<g>
						<polygon style="fill:#C68C71;" points="205.826,435.306 204.67,405.374 224.43,406.245 224.793,435.58 						"/>
						<g>
							<g>
								<path d="M224.793,435.58l33.365,17.034c2.447,1.227,3.733,3.972,3.109,6.638l0,0l-60.603-0.954l5.162-22.992L224.793,435.58
									z"/>
								<path style="fill:#FFFFFF;" d="M200.664,458.298l-0.146,4.62l55.397,0.294c2.463,0.006,4.638-1.604,5.352-3.961l0,0
									L200.664,458.298z"/>
							</g>
							<g>
								
									<line style="fill:none;stroke:#FFFFFF;stroke-width:1.4813;stroke-linecap:round;stroke-linejoin:round;stroke-miterlimit:10;" x1="234.898" y1="440.426" x2="230.07" y2="442.648"/>
								
									<line style="fill:none;stroke:#FFFFFF;stroke-width:1.4813;stroke-linecap:round;stroke-linejoin:round;stroke-miterlimit:10;" x1="239.85" y1="442.648" x2="234.864" y2="445.01"/>
								
									<line style="fill:none;stroke:#FFFFFF;stroke-width:1.4813;stroke-linecap:round;stroke-linejoin:round;stroke-miterlimit:10;" x1="244.512" y1="445.647" x2="239.725" y2="447.833"/>
							</g>
						</g>
					</g>
					<polygon style="fill:#050907;" points="222.159,216.992 228.62,427.03 198.403,427.03 186.241,218.858 					"/>
				</g>
				<g>
					<g>
						<polygon style="fill:#C68C71;" points="126.123,435.306 132.111,408.366 150.883,409.238 144.102,435.58 						"/>
						<path d="M126.123,435.306l-19.16,14.669c-2.173,2.471-3.138,5.031-3.138,8.322l0,0h41.835l-1.557-22.718L126.123,435.306z"/>
						
							<rect x="103.824" y="458.298" transform="matrix(-1 -1.224647e-16 1.224647e-16 -1 249.4837 921.2622)" style="fill:#FFFFFF;" width="41.835" height="4.666"/>
						
							<line style="fill:none;stroke:#FFFFFF;stroke-width:1.4813;stroke-linecap:round;stroke-linejoin:round;stroke-miterlimit:10;" x1="125.273" y1="441.464" x2="119.073" y2="440.051"/>
						
							<line style="fill:none;stroke:#FFFFFF;stroke-width:1.4813;stroke-linecap:round;stroke-linejoin:round;stroke-miterlimit:10;" x1="122.181" y1="444.789" x2="114.748" y2="443.242"/>
						
							<line style="fill:none;stroke:#FFFFFF;stroke-width:1.4813;stroke-linecap:round;stroke-linejoin:round;stroke-miterlimit:10;" x1="117.139" y1="447.77" x2="111.096" y2="446.473"/>
					</g>
					<g>
						<polygon style="fill:#050907;" points="162.102,219.716 121.459,425.395 152.144,426.378 205.723,218 						"/>
						
							<polyline style="fill:none;stroke:#F1E6D0;stroke-width:0.3935;stroke-linecap:round;stroke-linejoin:round;stroke-miterlimit:10;" points="
							189.42,282.123 193.14,267.072 205.463,259.472 						"/>
					</g>
				</g>
			</g>
			<g>
				<g>
					<g>
						<path style="fill:#C68C71;" d="M216.036,172.395l16.868,36.899c2.609,5.333,9.166,7.375,14.342,4.466l0,0
							c4.734-2.661,6.6-8.532,4.271-13.437l-17.722-39.895L216.036,172.395z"/>
						<path style="fill:#7254BE;" d="M216.305,188.93c0,0,7.619,2.189,27.104-15.525l-12.826-27.127
							c-3.582-7.575-12.894-10.441-20.116-6.191l0,0c-5.982,3.521-8.558,10.841-6.099,17.332L216.305,188.93z"/>
					</g>
					<g>
						<path style="fill:#C68C71;" d="M239.775,195.305l51.637-12.081l2.531,11.217l-47.953,19.887
							c-5.747,2.363-12.238-1.011-13.605-7.073v0C231.183,201.924,234.468,196.611,239.775,195.305z"/>
						<g>
							<path style="fill:#C68C71;" d="M285.889,184.43l1.897,10.653c0,0,28.383,11.763,31.193-15.961l-9.951-9.246L285.889,184.43z"
								/>
							
								<rect x="299.53" y="154.68" transform="matrix(0.4903 0.8716 -0.8716 0.4903 316.3737 -189.7827)" style="fill:#DF617D;" width="41.819" height="41.819"/>
							<path style="fill:#C68C71;" d="M294.895,178.765l8.396-6.256c1.191-0.887,2.901-0.357,3.38,1.048l0,0
								c0.264,0.773,0.076,1.629-0.489,2.219l-2.915,4.315c0,0-1.091,9.26-4.772,11.853L294.895,178.765z"/>
						</g>
					</g>
				</g>
				<g>
					<path style="fill:#7254BE;" d="M196.847,133.609c0,0-13.06,1.407-29.884,9.667c-2.888,1.418-3.078,4.556-2.956,7.77
						l-5.446,94.375c46.735,11.518,66.07-7.001,66.07-7.001l1.926-93.074c0.181-2.904-1.606-5.565-4.368-6.479
						C215.853,136.772,204.453,133.419,196.847,133.609z"/>
					<path style="fill:#C68C71;" d="M186.375,135.839l6.074-1.479l10.248-1.608l5.85,2.302l3.407,0.82c0,0,5.092,8.143-6.092,9.195
						C192.444,146.331,187.206,139.651,186.375,135.839z"/>
					
						<line style="fill:none;stroke:#000000;stroke-width:0.4402;stroke-linecap:round;stroke-linejoin:round;stroke-miterlimit:10;" x1="225.741" y1="186.376" x2="226.099" y2="165.547"/>
				</g>
				<g>
					<g>
						<path style="fill:#C68C71;" d="M132.923,187.413l28.746,37.762l-9.182,6.923l-34.345-31.193
							c-4.519-4.265-4.114-11.57,0.848-15.31l0,0C123.355,182.305,129.549,183.114,132.923,187.413z"/>
						<g>
							<path style="fill:#B97B61;" d="M152.345,245.498c0,0-2.512-1.539-3.725-4.743c-0.376-0.992-1.52-1.457-2.51-1.074l0,0
								c-0.867,0.336-1.373,1.247-1.176,2.156c0.342,1.581,1.275,4.077,3.815,6.391L152.345,245.498z"/>
							<path style="fill:#B97B61;" d="M154.363,246.536c0,0-3.91-0.762-11.367-5.178c-0.775-0.459-1.743-0.396-2.296,0.315l0,0
								c-0.513,0.66-0.458,1.596,0.132,2.188c1.463,1.467,4.594,4.029,9.594,5.31L154.363,246.536z"/>
							<path style="fill:#C68C71;" d="M157.983,221.514c0,0,10.76,8.062,6.276,17.676c-4.484,9.614-9.391,13.454-12.654,12.34
								c-2.258-0.77-6.841-2.189-9.45-2.989c-1.082-0.332-1.703-1.458-1.413-2.551l0,0c0.268-1.01,1.236-1.671,2.274-1.553
								l8.928,1.384c0,0-2.635-10.242-0.791-16.393L157.983,221.514z"/>
						</g>
					</g>
					<g>
						<path style="fill:#C68C71;" d="M150.309,160.242l-31.714,25.303c-4.542,3.824-4.935,10.68-0.859,14.997l0,0
							c3.728,3.948,9.876,4.337,14.072,0.889l34.415-26.857L150.309,160.242z"/>
						<g>
							<path style="fill:#7254BE;" d="M137.618,163.319c0,0-0.312,7.921,21.533,22.628l23.292-18.917
								c6.505-5.283,7.071-15.01,1.223-21.011v0c-4.845-4.972-12.567-5.73-18.286-1.796L137.618,163.319z"/>
							
								<line style="fill:none;stroke:#000000;stroke-width:0.4402;stroke-linecap:round;stroke-linejoin:round;stroke-miterlimit:10;" x1="162.41" y1="183.299" x2="176.199" y2="171.919"/>
						</g>
					</g>
				</g>
			</g>
			<g>
				<path style="fill:#050907;" d="M223.877,93.415c-0.42,11.248-15.155,18.738-26.784,20.586c-0.837-0.25-14.62-7.99-16.277-20.368
					c-2.061-15.388,11.343-23.77,25.835-22.411C217.767,72.264,224.423,78.78,223.877,93.415z"/>
				<polygon style="fill:#C68C71;" points="194.692,105.83 192.254,136.831 209.449,138.805 208.21,107.798 				"/>
				<path style="fill:#B36F56;" d="M208.991,127.333c-11.86-2.722-12.654-14.782-12.654-14.782l12.194,1.048L208.991,127.333z"/>
				<path style="fill:#B36F56;" d="M216.796,105.933c0.35-1.994,1.042-3.924,2.134-5.69c1.498-2.422,3.473-4.245,6.591-3.04
					c5.183,2.003-0.732,10.788-6.044,11.076C217.914,108.364,216.576,107.188,216.796,105.933L216.796,105.933z"/>
				<path style="fill:#C68C71;" d="M201.057,73.873c3.693-0.728,8.567,0.928,12.184,1.967c4.9,1.407,9.769,4.456,11.193,15.088
					c2.026,15.126-1.394,25.45-9.13,28.339c-5.939,2.218-10.051,0.9-16.389-3.434c-2.359-1.613-4.436-5.97-4.893-8.921l-2.254-8.315
					C191.769,98.596,183.412,77.351,201.057,73.873z"/>
				<path style="fill:#050907;" d="M194.717,97.71c0,0-6.094-19.993,3.714-18.739c12.507,1.598,18.698,2.242,17.845-3.436
					c0,0-15.043-10.003-26.485,1.892c-11.442,11.895,2.367,22.609,2.367,22.609L194.717,97.71z"/>
				<g>
					<path style="fill:#C68C71;" d="M195.122,107.384c-0.295-2.11-0.952-4.165-2.035-6.061c-1.486-2.602-4.478-4.33-7.596-2.704
						c-5.31,2.769,0.175,11.961,6.727,11.133C193.851,109.547,195.308,108.713,195.122,107.384L195.122,107.384z"/>
					
						<path style="fill:none;stroke:#000000;stroke-width:0.4402;stroke-linecap:round;stroke-linejoin:round;stroke-miterlimit:10;" d="
						M186.667,102.733c4.056-1.062,5.322,2.886,5.322,2.886"/>
				</g>
				<g>
					<g>
						
							<polyline style="fill:none;stroke:#000000;stroke-width:0.4402;stroke-linecap:round;stroke-linejoin:round;stroke-miterlimit:10;" points="
							216.276,97.584 219.555,102.422 217.864,103.896 						"/>
					</g>
					<g>
						<g>
							<defs>
								<path id="XMLID_4_" d="M211.759,97.965c0,0-3.182-5.287-8.359,0.105C203.4,98.07,207.264,103.221,211.759,97.965z"/>
							</defs>
							<use xlink:href="#XMLID_4_"  style="overflow:visible;fill:#FFFFFF;"/>
							<clipPath id="XMLID_00000145018284812187997690000014814997593172963250_">
								<use xlink:href="#XMLID_4_"  style="overflow:visible;"/>
							</clipPath>
							<path style="clip-path:url(#XMLID_00000145018284812187997690000014814997593172963250_);" d="M210.313,97.237
								c0.408,1.352-0.324,2.768-1.635,3.164c-1.311,0.396-2.704-0.379-3.112-1.731c-0.408-1.352,0.324-2.768,1.635-3.164
								C208.512,95.11,209.905,95.885,210.313,97.237z"/>
						</g>
						<g>
							<path d="M203.27,97.978c0.453-0.646,1.031-1.215,1.71-1.633c0.682-0.42,1.426-0.709,2.254-0.808l-0.019,0.002
								c0.447-0.059,0.9-0.098,1.358-0.066c0.458,0.026,0.915,0.123,1.356,0.277c0.436,0.17,0.85,0.409,1.207,0.72
								c0.361,0.317,0.659,0.664,0.887,1.138c0.079,0.163,0.01,0.359-0.153,0.437c-0.163,0.078-0.359,0.01-0.437-0.153
								c-0.002-0.003-0.003-0.007-0.005-0.01l-0.013-0.029c-0.139-0.319-0.397-0.668-0.686-0.931
								c-0.292-0.273-0.636-0.489-1.007-0.651c-0.378-0.147-0.778-0.249-1.191-0.287c-0.413-0.044-0.833-0.023-1.253,0.017
								l-0.019,0.002c-0.703,0.06-1.443,0.308-2.078,0.678c-0.645,0.369-1.204,0.883-1.653,1.481
								c-0.051,0.071-0.151,0.087-0.222,0.035C203.238,98.147,203.223,98.048,203.27,97.978z"/>
						</g>
					</g>
					<g>
						<g>
							<defs>
								<path id="XMLID_3_" d="M218.417,97.51c0,0,4.142-4.679,6.006,0.268C224.423,97.778,221.202,102.188,218.417,97.51z"/>
							</defs>
							<use xlink:href="#XMLID_3_"  style="overflow:visible;fill:#FFFFFF;"/>
							<clipPath id="XMLID_00000021114720511060392520000004917845982528688538_">
								<use xlink:href="#XMLID_3_"  style="overflow:visible;"/>
							</clipPath>
							<path style="clip-path:url(#XMLID_00000021114720511060392520000004917845982528688538_);" d="M219.958,96.821
								c-0.527,1.135-0.226,2.393,0.673,2.811c0.899,0.417,2.054-0.164,2.581-1.299c0.527-1.135,0.226-2.393-0.673-2.811
								C221.641,95.104,220.485,95.686,219.958,96.821z"/>
						</g>
						<g>
							<path d="M224.294,97.81c-0.131-0.501-0.365-0.971-0.703-1.34c-0.174-0.179-0.373-0.331-0.592-0.443
								c-0.213-0.112-0.468-0.19-0.682-0.206l-0.016-0.001c-0.671-0.066-1.351,0.06-1.947,0.374
								c-0.594,0.303-1.136,0.77-1.528,1.285l-0.013,0.017c-0.091,0.12-0.262,0.143-0.382,0.052
								c-0.12-0.091-0.143-0.262-0.052-0.382c0.002-0.002,0.004-0.006,0.006-0.008c0.493-0.599,1.08-1.058,1.764-1.383
								c0.678-0.327,1.459-0.443,2.202-0.34l-0.016-0.001c0.613,0.076,1.113,0.394,1.497,0.817c0.37,0.434,0.599,0.961,0.718,1.496
								c0.016,0.071-0.028,0.142-0.1,0.158C224.382,97.921,224.313,97.878,224.294,97.81z"/>
						</g>
					</g>
					<path style="fill:#050907;" d="M194.717,97.71c0,0,2.019,4.634,3.549,6.376c1.4,1.594,5.374,1.671,8.108,7.239
						c0.304,0.618,1.213,0.696,1.536,0.087c1.975-3.718,5.766-7.326,16.525-5.392c0,0,5.197,13.608-8.833,15.243
						c-15.375,1.792-19.317-6.004-19.949-11.943c-0.632-5.939-3.494-9.285-3.494-9.285L194.717,97.71z"/>
					<path style="fill:#050907;" d="M200.914,91.197c2.007-0.591,6.017-1.568,9.945-1.327c0.589,0.036,0.986-0.521,0.713-1.005
						c-0.574-1.017-1.907-2.339-4.935-2.147c-3.278,0.208-5.343,2.381-6.335,3.762C200.036,90.85,200.448,91.334,200.914,91.197z"/>
					<path style="fill:#050907;" d="M224.383,90.041c-1.431-0.551-3.373-0.52-6.016-0.325c-0.396,0.029-0.729-0.481-0.599-0.921
						c0.275-0.924,1.395-2.54,3.475-2.346c2.252,0.21,3.18,1.53,3.474,2.942C224.8,89.788,224.715,90.169,224.383,90.041z"/>
					
						<path style="fill:none;stroke:#FFFFFF;stroke-width:0.4402;stroke-linecap:round;stroke-linejoin:round;stroke-miterlimit:10;" d="
						M213.889,108.559c0,0,3.158,1.522,6.316-0.485"/>
				</g>
			</g>
		</g>
		
			<line style="fill:none;stroke:#000000;stroke-width:0.692;stroke-linecap:round;stroke-linejoin:round;stroke-miterlimit:10;" x1="64.204" y1="463.451" x2="677.219" y2="463.451"/>
	</g>
</g>
</svg>
